<svg width="217" height="38" viewBox="0 0 217 38" fill="none" xmlns="http://www.w3.org/2000/svg">
<rect width="217" height="38" rx="7" fill="black"/>
<path d="M22.8823 24.06H23.7223L27.3343 15.6H26.3143L23.3143 22.836L20.3263 15.6H19.2703L22.8823 24.06ZM28.1503 24H34.2823V23.136H29.0983V20.196H33.6823V19.332H29.0983V16.464H34.2223V15.6H28.1503V24ZM38.7094 24.132C40.8094 24.132 42.2134 22.872 42.2134 20.412V15.6H41.2654V20.484C41.2654 22.32 40.2814 23.256 38.7334 23.256C37.1134 23.256 36.1654 22.248 36.1654 20.424V15.6H35.2174V20.484C35.2174 22.86 36.6334 24.132 38.7094 24.132ZM43.6149 24H44.5629V20.736H46.9629L49.3989 24H50.5629L47.9829 20.568C49.3029 20.34 50.2629 19.512 50.2629 18.12V18.096C50.2629 17.424 50.0349 16.86 49.6149 16.44C49.0869 15.912 48.2709 15.6 47.2269 15.6H43.6149V24ZM44.5629 19.884V16.476H47.1549C48.5109 16.476 49.3029 17.088 49.3029 18.132V18.156C49.3029 19.236 48.3909 19.884 47.1429 19.884H44.5629ZM51.4468 24H57.5788V23.136H52.3948V20.196H56.9788V19.332H52.3948V16.464H57.5188V15.6H51.4468V24ZM63.5875 24H64.5355V16.476H67.3675V15.6H60.7555V16.476H63.5875V24ZM71.6119 24.144C74.1679 24.144 75.9079 22.116 75.9079 19.8V19.776C75.9079 17.46 74.1919 15.456 71.6359 15.456C69.0799 15.456 67.3399 17.484 67.3399 19.8V19.824C67.3399 22.14 69.0559 24.144 71.6119 24.144ZM71.6359 23.268C69.7159 23.268 68.3239 21.708 68.3239 19.8V19.776C68.3239 17.868 69.6919 16.332 71.6119 16.332C73.5319 16.332 74.9239 17.892 74.9239 19.8V19.824C74.9239 21.732 73.5559 23.268 71.6359 23.268ZM78.7122 24H79.6602V16.476H82.4922V15.6H75.8802V16.476H78.7122V24ZM83.3757 24H89.5077V23.136H84.3237V20.196H88.9077V19.332H84.3237V16.464H89.4477V15.6H83.3757V24ZM93.4547 24.12C95.1227 24.12 96.3227 23.184 96.3227 21.744V21.72C96.3227 20.436 95.4587 19.764 93.5867 19.344C91.7267 18.96 91.3067 18.504 91.3067 17.712V17.688C91.3067 16.92 91.9907 16.332 93.0947 16.332C93.9587 16.332 94.7387 16.608 95.5187 17.244L96.0707 16.512C95.2067 15.828 94.3547 15.48 93.1187 15.48C91.5227 15.48 90.3587 16.464 90.3587 17.772V17.796C90.3587 19.176 91.2467 19.8 93.1787 20.22C94.9427 20.604 95.3627 21.036 95.3627 21.816V21.84C95.3627 22.668 94.6307 23.268 93.4907 23.268C92.3267 23.268 91.4867 22.884 90.6107 22.08L90.0227 22.776C91.0307 23.688 92.1107 24.12 93.4547 24.12ZM100.168 24H105.844V23.124H101.116V15.6H100.168V24ZM106.711 24H112.843V23.136H107.659V20.196H112.243V19.332H107.659V16.464H112.783V15.6H106.711V24ZM116.79 24.12C118.458 24.12 119.658 23.184 119.658 21.744V21.72C119.658 20.436 118.794 19.764 116.922 19.344C115.062 18.96 114.642 18.504 114.642 17.712V17.688C114.642 16.92 115.326 16.332 116.43 16.332C117.294 16.332 118.074 16.608 118.854 17.244L119.406 16.512C118.542 15.828 117.69 15.48 116.454 15.48C114.858 15.48 113.694 16.464 113.694 17.772V17.796C113.694 19.176 114.582 19.8 116.514 20.22C118.278 20.604 118.698 21.036 118.698 21.816V21.84C118.698 22.668 117.966 23.268 116.826 23.268C115.662 23.268 114.822 22.884 113.946 22.08L113.358 22.776C114.366 23.688 115.446 24.12 116.79 24.12ZM127.403 24.144C129.959 24.144 131.699 22.116 131.699 19.8V19.776C131.699 17.46 129.983 15.456 127.427 15.456C124.871 15.456 123.131 17.484 123.131 19.8V19.824C123.131 22.14 124.847 24.144 127.403 24.144ZM127.427 23.268C125.507 23.268 124.115 21.708 124.115 19.8V19.776C124.115 17.868 125.483 16.332 127.403 16.332C129.323 16.332 130.715 17.892 130.715 19.8V19.824C130.715 21.732 129.347 23.268 127.427 23.268ZM132.859 24H136.591C138.427 24 139.639 23.148 139.639 21.708V21.684C139.639 20.544 138.835 19.944 137.839 19.656C138.499 19.368 139.171 18.804 139.171 17.712V17.688C139.171 17.172 138.991 16.716 138.631 16.344C138.151 15.876 137.395 15.6 136.435 15.6H132.859V24ZM138.211 17.844C138.211 18.84 137.431 19.344 136.279 19.344H133.795V16.452H136.351C137.551 16.452 138.211 16.992 138.211 17.82V17.844ZM138.679 21.648C138.679 22.596 137.899 23.148 136.615 23.148H133.795V20.184H136.447C137.923 20.184 138.679 20.712 138.679 21.624V21.648ZM140.679 24H141.627V20.736H144.027L146.463 24H147.627L145.047 20.568C146.367 20.34 147.327 19.512 147.327 18.12V18.096C147.327 17.424 147.099 16.86 146.679 16.44C146.151 15.912 145.335 15.6 144.291 15.6H140.679V24ZM141.627 19.884V16.476H144.219C145.575 16.476 146.367 17.088 146.367 18.132V18.156C146.367 19.236 145.455 19.884 144.207 19.884H141.627ZM148.511 24H154.643V23.136H149.459V20.196H154.043V19.332H149.459V16.464H154.583V15.6H148.511V24ZM158.59 24.12C160.258 24.12 161.458 23.184 161.458 21.744V21.72C161.458 20.436 160.594 19.764 158.722 19.344C156.862 18.96 156.442 18.504 156.442 17.712V17.688C156.442 16.92 157.126 16.332 158.23 16.332C159.094 16.332 159.874 16.608 160.654 17.244L161.206 16.512C160.342 15.828 159.49 15.48 158.254 15.48C156.658 15.48 155.494 16.464 155.494 17.772V17.796C155.494 19.176 156.382 19.8 158.314 20.22C160.078 20.604 160.498 21.036 160.498 21.816V21.84C160.498 22.668 159.766 23.268 158.626 23.268C157.462 23.268 156.622 22.884 155.746 22.08L155.158 22.776C156.166 23.688 157.246 24.12 158.59 24.12Z" fill="white"/>
<path d="M185 20H205" stroke="white"/>
<path d="M201.5 16.5L205 20L201.5 23.5" stroke="white"/>
</svg>
