<svg width="560" height="135" viewBox="0 0 560 135" fill="none" xmlns="http://www.w3.org/2000/svg">
<path d="M33.5406 111.536C30.1441 111.536 26.7475 111.117 23.7756 110.279C20.8036 109.441 18.2563 108.184 16.1334 106.508C14.0106 104.413 12.3124 102.318 11.4632 98.9655C10.1895 96.0324 9.76498 92.2613 9.76498 87.2332V49.1034H0V29.8289H9.76498V9.29749H32.6914V29.8289H51.7968V49.1034H32.6914V83.4621C32.6914 88.4902 35.2388 91.4233 40.3336 91.4233C44.5792 91.4233 47.9758 90.5853 51.7968 88.4902V106.927C49.2495 108.184 46.7021 109.441 43.7301 110.279C40.7582 111.117 37.3617 111.536 33.5406 111.536Z" fill="black"/>
<path d="M276.816 91.4234C280.213 91.4234 283.185 91.0044 286.157 89.7474C288.704 88.4904 291.251 86.8143 292.95 84.7193C294.648 82.6242 296.346 80.1102 297.195 77.5961C298.044 74.6631 298.893 71.73 298.893 68.7969V68.3779C298.893 65.4449 298.469 62.5118 297.195 59.5787C296.346 56.6457 294.648 54.5506 292.525 52.0366C290.402 49.9415 288.279 48.2655 285.307 47.0085C282.76 45.7514 279.363 45.3324 276.392 45.3324C272.995 45.3324 270.023 45.7514 267.051 47.0085C264.504 48.2655 261.956 49.9415 260.258 52.0366C258.56 54.1316 256.862 56.6457 256.012 59.1597C255.163 62.0928 254.314 65.0259 254.314 67.9589V68.3779C254.314 71.311 254.739 74.2441 256.012 77.1771C256.862 80.1102 258.56 82.2052 260.683 84.7193C262.805 86.8143 264.928 88.4904 267.9 89.7474C270.448 90.5854 273.42 91.4234 276.816 91.4234ZM276.392 111.955C270.023 111.955 263.655 110.698 258.135 108.603C252.616 106.508 247.521 103.156 243.7 99.3846C239.454 95.6135 236.482 91.0044 233.935 85.5573C231.812 80.1102 230.539 74.6631 230.539 68.7969V68.3779C230.539 62.5118 231.812 56.6457 233.935 51.6176C236.058 46.1704 239.454 41.5613 243.7 37.7902C247.946 34.0192 252.616 30.6671 258.135 28.572C263.655 26.477 270.023 25.22 276.392 25.22C282.76 25.22 289.128 26.477 294.648 28.572C300.167 30.6671 305.262 34.0192 309.083 37.7902C313.329 41.5613 316.301 46.1704 318.848 51.6176C320.971 57.0647 322.244 62.5118 322.244 68.3779V68.7969C322.244 74.6631 320.971 80.5292 318.848 85.5573C316.725 91.0044 313.329 95.6135 309.083 99.3846C304.837 103.156 300.167 106.508 294.648 108.603C289.128 110.698 283.185 111.955 276.392 111.955Z" fill="white"/>
<path d="M329.887 26.0573H354.087V42.8177C356.634 36.9515 360.031 32.3424 363.852 28.9904C368.097 25.6383 373.617 23.9623 380.834 24.3813V49.1028H379.561C371.494 49.1028 365.125 51.6169 360.455 56.226C355.785 60.8351 353.662 68.3772 353.662 78.4335V109.44H329.462V26.0573H329.887Z" fill="white"/>
<path d="M387.203 26.0576H411.403V38.2088C412.677 36.5328 414.375 34.8568 416.074 33.1807C417.772 31.5047 419.47 30.2477 421.593 28.9906C423.716 27.7336 425.838 26.8956 428.386 26.0576C430.933 25.2195 433.481 24.8005 436.453 24.8005C445.793 24.8005 452.586 27.7336 457.681 33.1807C462.776 38.6278 465.323 46.17 465.323 55.8072V109.859H441.123V63.3494C441.123 57.9023 439.849 53.2932 437.302 50.7791C434.754 47.846 431.358 46.589 426.688 46.589C422.017 46.589 418.196 47.846 415.649 50.7791C413.102 53.7122 411.403 57.9023 411.403 63.3494V109.859H387.203V26.0576Z" fill="white"/>
<path d="M560 116.564H464.473V135H560V116.564Z" fill="black"/>
<path d="M109.962 69.6346C109.962 72.9866 109.538 75.9197 108.264 78.8528C107.415 81.7858 105.717 83.8809 104.018 85.9759C102.32 88.071 100.197 89.328 97.65 90.585C95.1026 91.4231 92.5552 92.2611 90.0078 92.2611C87.4604 92.2611 84.913 91.8421 82.3657 90.585C79.8183 89.747 77.6955 88.071 75.9972 85.9759C74.2989 83.8809 72.6007 81.7858 71.7516 78.8528C70.9024 75.9197 70.0533 72.9866 70.0533 69.6346V69.2156C70.0533 65.8635 70.4779 62.9304 71.7516 59.9974C73.0252 57.4833 74.2989 54.9692 75.9972 52.8742C77.6955 50.7792 79.8183 49.5221 82.3657 48.2651C84.913 47.0081 87.4604 46.5891 90.0078 46.5891C92.5552 46.5891 95.1026 47.0081 97.65 48.2651C100.197 49.1031 101.896 50.7792 104.018 52.8742C105.717 54.9692 106.99 57.0643 108.264 59.9974C109.538 63.3494 109.962 66.2825 109.962 69.6346ZM132.889 0.498047H109.962V39.8849C107.415 36.5328 104.018 34.0188 99.7728 31.5047C95.9517 28.9907 90.8569 27.7336 84.4885 27.7336C79.8183 27.7336 75.1481 28.5717 70.4779 30.2477C66.2322 31.9237 61.9866 34.8568 58.5901 38.2089C55.1936 42.399 52.6462 46.5891 50.5233 51.6172C48.4005 56.6453 47.5514 62.5114 47.5514 69.2156V69.6346C47.5514 76.3387 48.4005 82.2049 50.5233 87.233C52.6462 92.2611 55.1936 96.8702 58.5901 100.222C61.9866 103.574 65.8077 106.507 70.4779 108.183C74.7235 109.859 79.3937 110.697 84.4885 110.697C90.4324 110.697 95.5272 109.44 99.7728 106.926C103.594 104.412 106.99 101.479 109.962 97.7082V109.44H120.576V73.8247L132.889 0.498047Z" fill="black"/>
<path d="M202.517 76.7577C202.517 80.9478 200.819 83.8809 197.847 85.5569C194.875 87.652 190.629 88.49 185.11 88.49H156.239V64.6065H184.261C190.629 64.6065 195.299 65.8635 197.847 67.9585C201.243 70.0536 202.517 72.9866 202.517 76.7577ZM156.664 21.4485H180.864C185.959 21.4485 190.204 22.2865 192.752 24.3816C195.299 26.4766 196.998 28.9907 196.998 32.7618V33.1808C196.998 37.3709 195.299 40.3039 192.327 41.98C189.355 43.656 184.685 44.913 179.59 44.913H157.088V21.4485H156.664ZM221.198 62.5114C217.377 58.3213 212.282 54.9692 205.913 52.8742C208.036 52.0362 209.734 50.7792 211.433 49.1031C213.131 47.8461 214.829 45.751 216.103 44.075C217.377 41.98 218.65 39.8849 219.075 37.7899C219.924 35.2758 220.349 32.7618 220.349 29.4097V28.9907C220.349 21.4485 217.801 15.5824 212.706 10.5543C206.338 3.85012 196.998 0.498047 184.261 0.498047H132.888L145.201 74.2437V109.859H144.776H185.534C191.903 109.859 197.422 109.44 202.517 108.183C207.612 106.926 211.857 105.25 215.678 102.736C219.499 100.222 222.047 97.2892 224.17 93.5181C226.292 89.747 227.142 85.5569 227.142 80.5288V80.1098C226.717 72.1486 225.019 66.7015 221.198 62.5114Z" fill="white"/>
</svg>
