<svg width="150" height="36" viewBox="0 0 150 36" fill="none" xmlns="http://www.w3.org/2000/svg">
<path d="M8.97727 29.7197C8.06818 29.7197 7.15909 29.6076 6.36364 29.3833C5.56818 29.159 4.88636 28.8225 4.31818 28.3739C3.75 27.8132 3.29545 27.2524 3.06818 26.3552C2.72727 25.5702 2.61364 24.5608 2.61364 23.215V13.0094H0V7.85055H2.61364V2.35522H8.75V7.85055H13.8636V13.0094H8.75V22.2057C8.75 23.5515 9.43182 24.3365 10.7955 24.3365C11.9318 24.3365 12.8409 24.1122 13.8636 23.5515V28.4861C13.1818 28.8225 12.5 29.159 11.7045 29.3833C10.9091 29.6076 10 29.7197 8.97727 29.7197Z" fill="black"/>
<path d="M74.091 24.3366C75 24.3366 75.7955 24.2244 76.591 23.888C77.2728 23.5515 77.9546 23.1029 78.4091 22.5422C78.8637 21.9814 79.3182 21.3085 79.5455 20.6356C79.7728 19.8506 80 19.0655 80 18.2805V18.1683C80 17.3833 79.8864 16.5983 79.5455 15.8132C79.3182 15.0282 78.8637 14.4674 78.2955 13.7945C77.7273 13.2338 77.1591 12.7852 76.3637 12.4487C75.6819 12.1123 74.7728 12.0001 73.9773 12.0001C73.0682 12.0001 72.2728 12.1123 71.4773 12.4487C70.7955 12.7852 70.1137 13.2338 69.6591 13.7945C69.2046 14.3553 68.75 15.0282 68.5228 15.7011C68.2955 16.4861 68.0682 17.2712 68.0682 18.0562V18.1683C68.0682 18.9534 68.1819 19.7384 68.5228 20.5235C68.75 21.3085 69.2046 21.8693 69.7728 22.5422C70.341 23.1029 70.9091 23.5515 71.7046 23.888C72.3864 24.1123 73.1819 24.3366 74.091 24.3366ZM73.9773 29.8319C72.2728 29.8319 70.5682 29.4954 69.091 28.9347C67.6137 28.374 66.25 27.4768 65.2273 26.4674C64.091 25.4581 63.2955 24.2244 62.6137 22.7665C62.0455 21.3085 61.7046 19.8506 61.7046 18.2805V18.1683C61.7046 16.5983 62.0455 15.0282 62.6137 13.6824C63.1819 12.2244 64.091 10.9908 65.2273 9.98143C66.3637 8.97208 67.6137 8.07489 69.091 7.51414C70.5682 6.95339 72.2728 6.61694 73.9773 6.61694C75.6819 6.61694 77.3864 6.95339 78.8637 7.51414C80.341 8.07489 81.7046 8.97208 82.7273 9.98143C83.8637 10.9908 84.6591 12.2244 85.341 13.6824C85.9091 15.1403 86.25 16.5983 86.25 18.1683V18.2805C86.25 19.8506 85.9091 21.4207 85.341 22.7665C84.7728 24.2244 83.8637 25.4581 82.7273 26.4674C81.591 27.4768 80.341 28.374 78.8637 28.9347C77.3864 29.4954 75.7955 29.8319 73.9773 29.8319Z" fill="white"/>
<path d="M88.2955 6.84102H94.7728V11.327C95.4546 9.75691 96.3637 8.52327 97.3864 7.62607C98.5228 6.72887 100 6.28028 101.932 6.39242V13.0092H101.591C99.4319 13.0092 97.7273 13.6821 96.4773 14.9158C95.2273 16.1494 94.6592 18.1681 94.6592 20.8597V29.1588H88.1819V6.84102H88.2955Z" fill="white"/>
<path d="M103.636 6.84109H110.114V10.0934C110.455 9.64483 110.909 9.19623 111.364 8.74763C111.818 8.29903 112.273 7.96258 112.841 7.62613C113.409 7.28969 113.977 7.06539 114.659 6.84109C115.341 6.61679 116.023 6.50464 116.818 6.50464C119.318 6.50464 121.136 7.28969 122.5 8.74763C123.864 10.2056 124.546 12.2243 124.546 14.8037V29.271H118.068V16.8224C118.068 15.3645 117.727 14.1308 117.046 13.4579C116.364 12.6729 115.455 12.3364 114.205 12.3364C112.955 12.3364 111.932 12.6729 111.25 13.4579C110.568 14.243 110.114 15.3645 110.114 16.8224V29.271H103.636V6.84109Z" fill="white"/>
<path d="M149.886 31.0654H124.318V36H149.886V31.0654Z" fill="black"/>
<path d="M29.4318 18.5047C29.4318 19.4019 29.3182 20.1869 28.9773 20.972C28.75 21.757 28.2955 22.3178 27.8409 22.8785C27.3864 23.4393 26.8182 23.7757 26.1364 24.1122C25.4546 24.3364 24.7728 24.5607 24.0909 24.5607C23.4091 24.5607 22.7273 24.4486 22.0455 24.1122C21.3637 23.8879 20.7955 23.4393 20.3409 22.8785C19.8864 22.3178 19.4318 21.757 19.2046 20.972C18.9773 20.1869 18.75 19.4019 18.75 18.5047V18.3925C18.75 17.4953 18.8637 16.7103 19.2046 15.9252C19.5455 15.2523 19.8864 14.5794 20.3409 14.0187C20.7955 13.4579 21.3637 13.1215 22.0455 12.785C22.7273 12.4486 23.4091 12.3364 24.0909 12.3364C24.7728 12.3364 25.4546 12.4486 26.1364 12.785C26.8182 13.0093 27.2727 13.4579 27.8409 14.0187C28.2955 14.5794 28.6364 15.1402 28.9773 15.9252C29.3182 16.8224 29.4318 17.6075 29.4318 18.5047ZM35.5682 0H29.4318V10.5421C28.75 9.64486 27.8409 8.97196 26.7046 8.29907C25.6818 7.62617 24.3182 7.28972 22.6137 7.28972C21.3637 7.28972 20.1137 7.51402 18.8637 7.96262C17.7273 8.41122 16.5909 9.19626 15.6818 10.0935C14.7727 11.215 14.0909 12.3364 13.5227 13.6822C12.9546 15.028 12.7273 16.5981 12.7273 18.3925V18.5047C12.7273 20.2991 12.9546 21.8692 13.5227 23.215C14.0909 24.5607 14.7727 25.7944 15.6818 26.6916C16.5909 27.5888 17.6137 28.3738 18.8637 28.8224C20 29.271 21.25 29.4953 22.6137 29.4953C24.2046 29.4953 25.5682 29.1589 26.7046 28.486C27.7273 27.8131 28.6364 27.028 29.4318 26.0187V29.1589H32.2728V19.6262L35.5682 0Z" fill="black"/>
<path d="M54.2045 20.4112C54.2045 21.5327 53.7499 22.3178 52.9545 22.7664C52.159 23.3271 51.0227 23.5514 49.5454 23.5514H41.8181V17.1589H49.3181C51.0227 17.1589 52.2727 17.4953 52.9545 18.0561C53.8636 18.6168 54.2045 19.4019 54.2045 20.4112ZM41.9318 5.60748H48.409C49.7727 5.60748 50.909 5.83178 51.5908 6.39252C52.2727 6.95327 52.7272 7.62617 52.7272 8.63551V8.74766C52.7272 9.86916 52.2727 10.6542 51.4772 11.1028C50.6818 11.5514 49.4318 11.8879 48.0681 11.8879H42.0454V5.60748H41.9318ZM59.2045 16.5981C58.1818 15.4766 56.8181 14.5794 55.1136 14.0187C55.6818 13.7944 56.1363 13.4579 56.5908 13.0093C57.0454 12.6729 57.4999 12.1121 57.8408 11.6636C58.1818 11.1028 58.5227 10.5421 58.6363 9.98131C58.8636 9.30841 58.9772 8.63551 58.9772 7.73832V7.62617C58.9772 5.60748 58.2954 4.03738 56.9318 2.69159C55.2272 0.897196 52.7272 0 49.3181 0H35.5681L38.8636 19.7383V29.271H38.7499H49.659C51.3636 29.271 52.8408 29.1589 54.2045 28.8224C55.5681 28.486 56.7045 28.0374 57.7272 27.3645C58.7499 26.6916 59.4318 25.9065 59.9999 24.8972C60.5681 23.8879 60.7954 22.7664 60.7954 21.4206V21.3084C60.6818 19.1776 60.2272 17.7196 59.2045 16.5981Z" fill="white"/>
</svg>
